<svg class="sisf-ei-svg-icon sisf--shield" width="29" height="37" viewBox="0 0 29 37" fill="none" xmlns="http://www.w3.org/2000/svg">
    <path d="M27.6497 6.92845L27.6178 5.72335L26.6416 5.64514C21.7604 5.25406 17.87 3.88674 15.0786 1.58082L14.3761 1L13.6809 1.58805C13.5636 1.68799 13.4419 1.78649 13.3159 1.88353C10.6638 3.9461 6.58776 5.31631 2.13262 5.6438L1.14915 5.71622L1.12018 6.8011C0.71753 21.6534 0.566874 27.2095 13.8041 35.535L14.3849 35.9L14.9657 35.5336C28.1869 27.1991 28.0409 21.6795 27.6497 6.92845ZM14.3822 33.3189C3.02054 26.0305 2.90781 21.5286 3.27565 7.73086C7.67591 7.26736 11.5797 5.89136 14.3866 3.80707C17.2531 5.92177 20.9783 7.23695 25.4876 7.72492C25.8511 21.5242 25.7686 25.9997 14.3825 33.3185L14.3822 33.3189Z" fill="black" stroke="white" stroke-width="0.5">
    </path>
    <path d="M12.6848 20.9L9.14335 17.2268L7.57324 18.7404L12.6891 24.0462L21.1945 15.1818L19.6201 13.6711L12.6848 20.9Z" fill="black" stroke="white" stroke-width="0.5">
    </path>
</svg>