<svg class="sisf-ei-svg-icon sisf--no-smoking" width="33" height="33" viewBox="0 0 33 33" fill="none" xmlns="http://www.w3.org/2000/svg">   
    <path d="M27.5537 5.53472C24.9637 2.94749 21.5417 1.36031 17.8937 1.05428C14.2457 0.748255 10.607 1.74312 7.6222 3.86268C7.52175 3.93786 7.45417 4.0489 7.43354 4.17266C7.41291 4.29642 7.44083 4.42337 7.51147 4.52707C7.58654 4.62814 7.69858 4.69537 7.82309 4.71405C7.9476 4.73272 8.07444 4.70133 8.17585 4.62673C10.9064 2.67947 14.2265 1.73689 17.5728 1.9589C20.9192 2.18091 24.0857 3.55386 26.535 5.84476L17.9202 14.4596H7.87688C7.7506 14.4596 7.62949 14.5098 7.5402 14.5991C7.4509 14.6884 7.40074 14.8095 7.40074 14.9358V17.9919C7.40074 18.1182 7.4509 18.2393 7.5402 18.3286C7.62949 18.4179 7.7506 18.4681 7.87688 18.4681H13.9117L5.95017 26.4296C3.77322 24.1037 2.41642 21.1299 2.08657 17.9613C1.75671 14.7927 2.4719 11.6032 4.12311 8.87878C4.15538 8.82651 4.17698 8.76837 4.18665 8.70771C4.19632 8.64704 4.19388 8.58507 4.17947 8.52535C4.16505 8.46564 4.13895 8.40937 4.10267 8.3598C4.06639 8.31023 4.02065 8.26834 3.96809 8.23655C3.91437 8.19687 3.85274 8.16923 3.78739 8.15551C3.72204 8.14178 3.6545 8.14229 3.58936 8.157C3.52422 8.17171 3.46301 8.20027 3.4099 8.24075C3.35679 8.28122 3.31302 8.33266 3.28156 8.39157C1.46934 11.3512 0.702609 14.8333 1.10413 18.2804C1.50566 21.7275 3.05221 24.9402 5.49617 27.404C8.39622 30.329 12.3395 31.9822 16.4584 31.9999C20.5773 32.0175 24.5346 30.3982 27.4596 27.4981C30.3846 24.5981 32.0378 20.6549 32.0554 16.5359C32.0731 12.417 30.4538 8.45973 27.5537 5.53472ZM8.34195 17.5711V15.4119H16.9568L14.8418 17.5711H8.34195ZM21.7514 15.4562H26.6679V17.5711H21.7514V15.4562ZM20.8102 17.5711H16.1706L18.2856 15.4562H20.8102V17.5711ZM16.5692 31.036C12.864 31.0416 9.29745 29.6268 6.60348 27.0829L15.2183 18.4681H27.1329C27.2592 18.4681 27.3803 18.4179 27.4696 18.3286C27.5589 18.2393 27.6091 18.1182 27.6091 17.9919V14.9358C27.6091 14.8095 27.5589 14.6884 27.4696 14.5991C27.3803 14.5098 27.2592 14.4596 27.1329 14.4596H19.2268L27.1883 6.49807C29.1363 8.56896 30.4355 11.1648 30.9255 13.9654C31.4155 16.766 31.0749 19.6488 29.9457 22.2581C28.8165 24.8674 26.9481 27.089 24.5711 28.6488C22.1941 30.2087 19.4124 31.0385 16.5692 31.036Z" fill="black" stroke="black" stroke-width="0.5">
    </path>
    <path d="M5.49232 14.9366V17.9928C5.49084 18.0548 5.50178 18.1164 5.52449 18.1741C5.5472 18.2318 5.58122 18.2844 5.62456 18.3288C5.66789 18.3732 5.71966 18.4084 5.77682 18.4325C5.83398 18.4565 5.89537 18.4689 5.95739 18.4689C6.08367 18.4689 6.20478 18.4187 6.29407 18.3294C6.38337 18.2401 6.43353 18.119 6.43353 17.9928V14.9366C6.43071 14.8112 6.37964 14.6917 6.29095 14.603C6.20226 14.5143 6.08278 14.4633 5.95739 14.4604C5.83304 14.4633 5.71475 14.5148 5.62784 14.6038C5.54093 14.6927 5.49229 14.8122 5.49232 14.9366Z" fill="black" stroke="black" stroke-width="0.5">
    </path>
    <path d="M5.67969 8.10287C5.96965 8.3418 6.20315 8.64194 6.36345 8.98174C6.52375 9.32155 6.60689 9.69262 6.60689 10.0683C6.60689 10.4441 6.52375 10.8151 6.36345 11.1549C6.20315 11.4947 5.96965 11.7949 5.67969 12.0338C5.59563 12.124 5.54889 12.2427 5.54889 12.366C5.54889 12.4893 5.59563 12.608 5.67969 12.6982C5.72435 12.7507 5.78063 12.792 5.84406 12.8189C5.9075 12.8458 5.97634 12.8576 6.0451 12.8532C6.15902 12.8587 6.27048 12.8189 6.35515 12.7425C6.7408 12.413 7.05044 12.0038 7.26275 11.5431C7.47507 11.0824 7.58501 10.5811 7.58501 10.0739C7.58501 9.56661 7.47507 9.06538 7.26275 8.60469C7.05044 8.144 6.7408 7.7348 6.35515 7.40527C6.05418 7.16198 5.81074 6.85514 5.64228 6.50672C5.47382 6.15831 5.3845 5.77695 5.38072 5.38997C5.38563 5.0156 5.47128 4.64669 5.6318 4.30845C5.79232 3.9702 6.02395 3.67058 6.31086 3.43004C6.39815 3.33927 6.44691 3.21823 6.44691 3.09231C6.44691 2.96638 6.39815 2.84534 6.31086 2.75458C6.26756 2.71038 6.21587 2.67527 6.15883 2.65131C6.10179 2.62734 6.04054 2.61499 5.97867 2.61499C5.91679 2.61499 5.85554 2.62734 5.7985 2.65131C5.74146 2.67527 5.68978 2.71038 5.64647 2.75458C5.26868 3.08211 4.96547 3.48682 4.75727 3.94142C4.54907 4.39602 4.44072 4.88996 4.43951 5.38997C4.43659 5.90513 4.54603 6.41474 4.76022 6.88328C4.97441 7.35182 5.28819 7.76801 5.67969 8.10287Z" fill="black" stroke="black" stroke-width="0.5">
    </path>
</svg>